# xmcd
#
# Track frame offsets: 
#        182
#        19420
#        34195
#        47470
#        59770
#        75895
#        86395
#        102820
#        111895
#        128245
#        137095
#        154045
#
# Disc length: 2263 seconds
#
# Revision: 0
# Processed by: cddbd v1.4PL0 Copyright (c) Steve Scherf et al.
# Submitted via: ExactAudioCopy v0.90b4
#
DISCID=9208d50c
DTITLE=Rocket 88 - Monkey Doin' Woman
DYEAR=1900
DGENRE=R&B
TTITLE0=Burns Me Up
TTITLE1=Crazy Mixed Up World
TTITLE2=Got Me Cryin'
TTITLE3=Frame Rockin' Daddy
TTITLE4=Gettin' High
TTITLE5=Eyes Like A Cat
TTITLE6=Hard Time Blues
TTITLE7=Natalene
TTITLE8=Monkey Doin' Woman
TTITLE9=Rocket
TTITLE10=Mr. Cleanhead
TTITLE11=Mellow Down Easy
EXTD=
EXTT0=
EXTT1=
EXTT2=
EXTT3=
EXTT4=
EXTT5=
EXTT6=
EXTT7=
EXTT8=
EXTT9=
EXTT10=
EXTT11=
PLAYORDER=
